<svg width="600" height="600" viewBox="0 0 600 600" fill="none" xmlns="http://www.w3.org/2000/svg">
  <rect width="600" height="600" fill="#F4E7D8"/>
  <g opacity="0.25" stroke="#8C6A52" stroke-width="1.4">
    <path d="M-10 60C120 30 180 100 310 74C430 50 500 72 620 48"/>
    <path d="M-20 120C110 96 205 138 310 116C425 92 530 134 622 110"/>
    <path d="M-18 180C120 154 205 208 320 184C440 160 526 208 618 182"/>
    <path d="M-14 240C110 214 195 264 318 236C426 212 520 248 616 228"/>
    <path d="M-24 300C124 276 214 320 318 294C446 266 532 316 626 288"/>
    <path d="M-12 360C114 336 196 386 314 356C430 326 512 376 620 348"/>
    <path d="M-18 420C118 394 200 444 318 416C432 390 524 432 618 404"/>
    <path d="M-8 480C124 452 218 500 322 476C440 448 516 490 618 468"/>
    <path d="M-16 540C108 514 194 566 308 538C428 510 514 554 620 528"/>
  </g>
</svg>
